# Blender 3.5.0
# www.blender.org
mtllib Lock Pick.mtl
o Cube
v -1.509235 -0.071934 0.017300
v -1.509235 0.071934 0.017300
v -1.000000 -0.071934 -0.017300
v -1.000000 0.071934 -0.017300
v 1.561867 -0.057372 0.017300
v 1.561867 0.040283 0.017300
v 1.561867 -0.057372 -0.017300
v 1.561867 0.040283 -0.017300
v -0.932673 -0.163930 -0.017300
v -0.932673 0.163930 -0.017300
v -1.441908 -0.163930 0.017300
v -1.441908 0.163930 0.017300
v 0.037624 0.163930 -0.017300
v 0.037624 -0.163930 0.017300
v 0.037624 -0.163930 -0.017300
v 0.037624 0.163930 0.017300
v 0.100990 0.057587 -0.017300
v 0.100990 -0.057587 0.017300
v 0.100990 -0.057587 -0.017300
v 0.100990 0.057587 0.017300
v 1.486264 0.151573 -0.017300
v 1.486264 -0.057587 0.017300
v 1.486264 -0.057587 -0.017300
v 1.486264 0.151573 0.017300
v 1.364586 -0.057587 -0.017300
v 1.364586 0.057587 0.017300
v 1.364586 0.057587 -0.017300
v 1.364586 -0.057587 0.017300
v 1.445579 0.151573 -0.017300
v 1.445579 -0.057587 0.017300
v 1.445579 -0.057587 -0.017300
v 1.445579 0.151573 0.017300
vn -0.0678 -0.0000 -0.9977
vn -0.0000 -0.0000 -1.0000
vn 1.0000 -0.0000 -0.0000
vn -0.0000 -0.0000 1.0000
vn 0.0028 -1.0000 -0.0000
vn -0.0677 0.0496 -0.9965
vn -0.0000 1.0000 -0.0000
vn -0.0677 -0.0496 -0.9965
vn 0.8591 0.5119 -0.0000
vn -0.0000 -1.0000 -0.0000
vn 0.8591 -0.5119 -0.0000
vn 0.8272 0.5619 -0.0000
vn -0.7575 0.6528 -0.0000
vt 0.375000 0.000000
vt 0.375000 1.000000
vt 0.125000 0.750000
vt 0.625000 0.000000
vt 0.625000 1.000000
vt 0.875000 0.750000
vt 0.125000 0.500000
vt 0.375000 0.250000
vt 0.875000 0.500000
vt 0.625000 0.250000
vt 0.375000 0.750000
vt 0.625000 0.750000
vt 0.375000 0.500000
vt 0.625000 0.500000
vt 0.133416 0.500000
vt 0.375000 0.258416
vt 0.866584 0.500000
vt 0.625000 0.258416
vt 0.375000 0.991584
vt 0.133416 0.750000
vt 0.866584 0.750000
vt 0.625000 0.991584
vt 0.745297 0.500000
vt 0.625000 0.379703
vt 0.375000 0.870297
vt 0.254703 0.750000
vt 0.254703 0.500000
vt 0.375000 0.379703
vt 0.625000 0.870297
vt 0.745297 0.750000
vt 0.737376 0.500000
vt 0.625000 0.387624
vt 0.375000 0.862376
vt 0.262624 0.750000
vt 0.375000 0.387624
vt 0.262624 0.500000
vt 0.737376 0.750000
vt 0.625000 0.862376
vt 0.625000 0.494623
vt 0.630377 0.500000
vt 0.369623 0.750000
vt 0.375000 0.755378
vt 0.369622 0.500000
vt 0.375000 0.494623
vt 0.630377 0.750000
vt 0.625000 0.755377
vt 0.375000 0.484824
vt 0.359824 0.500000
vt 0.625000 0.765176
vt 0.640176 0.750000
vt 0.640176 0.500000
vt 0.625000 0.484824
vt 0.375000 0.765176
vt 0.359824 0.750000
vt 0.631974 0.500000
vt 0.625000 0.493026
vt 0.375000 0.756974
vt 0.368026 0.750000
vt 0.375000 0.493026
vt 0.368026 0.500000
vt 0.631974 0.750000
vt 0.625000 0.756974
s 0
f 1/1/1 2/4/1 4/10/1 3/8/1
f 23/44/2 21/39/2 8/14/2 7/13/2
f 7/13/3 8/14/3 6/12/3 5/11/3
f 11/19/4 12/22/4 2/5/4 1/2/4
f 23/43/5 7/13/5 5/11/5 22/41/5
f 10/17/6 4/9/6 2/6/6 12/21/6
f 13/23/7 10/17/7 12/21/7 16/30/7
f 3/7/8 9/15/8 11/20/8 1/3/8
f 14/25/4 16/29/4 12/22/4 11/19/4
f 3/8/2 4/10/2 10/18/2 9/16/2
f 18/33/4 20/38/4 16/29/4 14/25/4
f 17/31/9 13/23/9 16/30/9 20/37/9
f 9/15/10 15/27/10 14/26/10 11/20/10
f 9/16/2 10/18/2 13/24/2 15/28/2
f 27/51/7 17/31/7 20/37/7 26/50/7
f 28/53/4 26/49/4 20/38/4 18/33/4
f 15/27/11 19/36/11 18/34/11 14/26/11
f 15/28/2 13/24/2 17/32/2 19/35/2
f 5/11/4 6/12/4 24/46/4 22/42/4
f 8/14/12 21/40/12 24/45/12 6/12/12
f 31/60/10 23/43/10 22/41/10 30/58/10
f 31/59/2 29/56/2 21/39/2 23/44/2
f 19/35/2 17/32/2 27/52/2 25/47/2
f 19/36/10 25/48/10 28/54/10 18/34/10
f 30/57/4 32/62/4 26/49/4 28/53/4
f 29/55/13 27/51/13 26/50/13 32/61/13
f 21/40/7 29/55/7 32/61/7 24/45/7
f 22/42/4 24/46/4 32/62/4 30/57/4
f 25/47/2 27/52/2 29/56/2 31/59/2
f 25/48/10 31/60/10 30/58/10 28/54/10
