# Blender 3.5.0
# www.blender.org
mtllib Revolver Bullet.mtl
o Cube
v -0.442402 0.004798 0.442402
v -0.433246 1.760344 0.433246
v -0.442402 0.004798 -0.442402
v -0.433246 1.760344 -0.433246
v 0.442402 0.004798 0.442402
v 0.433246 1.760344 0.433246
v 0.442402 0.004798 -0.442402
v 0.433246 1.760344 -0.433246
v -0.442402 0.189730 0.442402
v -0.442402 0.189730 -0.442402
v 0.442402 0.189730 -0.442402
v 0.442402 0.189730 0.442402
v -0.442402 0.117812 -0.442402
v 0.442402 0.117812 -0.442402
v 0.442402 0.117812 0.442402
v -0.442402 0.117812 0.442402
v -0.411813 0.153771 0.411813
v -0.411813 0.153771 -0.411813
v 0.411813 0.153771 -0.411813
v 0.411813 0.153771 0.411813
v -0.442402 1.655623 0.442402
v -0.442402 1.655623 -0.442402
v 0.442402 1.655623 -0.442402
v 0.442402 1.655623 0.442402
v -0.056206 2.444237 0.056206
v -0.056206 2.444237 -0.056206
v 0.056206 2.444237 0.056206
v 0.056206 2.444237 -0.056206
v -0.354188 2.233374 0.354188
v -0.354188 2.233374 -0.354188
v 0.354188 2.233374 0.354188
v 0.354188 2.233374 -0.354188
v -0.442402 1.759733 0.442402
v -0.442402 1.759733 -0.442402
v 0.442402 1.759733 -0.442402
v 0.442402 1.759733 0.442402
vn -0.0666 0.9978 -0.0000
vn -0.0000 0.9978 -0.0666
vn 0.0666 0.9978 -0.0000
vn -0.0000 0.9978 0.0666
vn -0.0000 -1.0000 -0.0000
vn -0.5776 0.8163 -0.0000
vn -0.0000 -0.6480 0.7617
vn 0.7617 -0.6480 -0.0000
vn -0.0000 -0.6480 -0.7617
vn -0.7617 -0.6480 -0.0000
vn -1.0000 -0.0000 -0.0000
vn -0.0000 -0.0000 -1.0000
vn 1.0000 -0.0000 -0.0000
vn -0.0000 -0.0000 1.0000
vn -0.7617 0.6479 -0.0000
vn -0.0000 0.6480 -0.7617
vn 0.7617 0.6479 -0.0000
vn -0.0000 0.6480 0.7617
vn -0.0000 1.0000 -0.0000
vn -0.0000 0.8163 0.5776
vn -0.0000 0.8163 -0.5776
vn 0.5776 0.8163 -0.0000
vn 0.9863 0.1648 -0.0000
vn -0.0000 0.1648 -0.9863
vn -0.0000 0.1648 0.9863
vn -0.9863 0.1648 -0.0000
vt 0.000000 1.000000
vt 1.000000 0.000000
vt 0.502022 0.000000
vt 0.502022 0.562205
vt 1.000000 0.562205
vt 0.000000 0.717224
vt 0.753033 0.000000
vt 0.246967 0.000000
vt 0.246967 0.562205
vt 0.753033 0.562205
vt 0.246967 1.000000
vt 0.251011 0.000000
vt 0.748989 0.000000
vt 0.251011 0.562205
vt 0.748989 0.562205
vt 0.246967 0.717224
vt 0.000000 0.000000
vt 0.497978 0.000000
vt 0.497978 0.562205
vt 0.000000 0.562205
vt 0.502022 0.059060
vt 1.000000 0.059060
vt 0.246967 0.059060
vt 0.753033 0.059060
vt 0.497978 0.059060
vt 0.000000 0.059060
vt 0.748989 0.059060
vt 0.251011 0.059060
vt 0.753033 0.036092
vt 0.246967 0.036092
vt 0.000000 0.036092
vt 0.497978 0.036092
vt 0.251011 0.036092
vt 0.748989 0.036092
vt 1.000000 0.036092
vt 0.502022 0.036092
vt 0.991462 0.047948
vt 0.510560 0.047948
vt 0.761571 0.047948
vt 0.238429 0.047948
vt 0.008538 0.047948
vt 0.489440 0.047948
vt 0.259549 0.047948
vt 0.740451 0.047948
vt 0.502022 0.527206
vt 1.000000 0.527206
vt 0.246967 0.527206
vt 0.753033 0.527206
vt 0.497978 0.527206
vt 0.000000 0.527206
vt 0.748989 0.527206
vt 0.251011 0.527206
vt 0.370077 0.853554
vt 0.370077 0.817628
vt 0.338700 0.853554
vt 0.338700 0.817628
vt 0.457766 0.953957
vt 0.522128 0.712594
vt 0.979894 0.712594
vt 0.457766 0.717224
vt 0.226861 0.712594
vt 0.773139 0.712594
vt 0.251011 0.953957
vt 0.271117 0.712594
vt 0.728883 0.712594
vt 0.251011 0.717224
vt 0.477872 0.712594
vt 0.020106 0.712594
vt 0.502022 0.560455
vt 1.000000 0.560455
vt 0.246967 0.560455
vt 0.753033 0.560455
vt 0.497978 0.560455
vt 0.000000 0.560455
vt 0.748989 0.560455
vt 0.251011 0.560455
s 0
usemtl Material.001
f 33/70/1 2/5/1 4/10/1 34/72/1
f 34/71/2 4/9/2 8/20/2 35/74/2
f 35/73/3 8/19/3 6/14/3 36/76/3
f 36/75/4 6/15/4 2/4/4 33/69/4
f 3/6/5 7/16/5 5/11/5 1/1/5
f 30/60/6 29/57/6 25/53/6 26/54/6
f 20/44/7 12/27/7 9/21/7 17/38/7
f 19/42/8 11/25/8 12/28/8 20/43/8
f 18/40/9 10/23/9 11/26/9 19/41/9
f 17/37/10 9/22/10 10/24/10 18/39/10
f 1/2/11 16/35/11 13/29/11 3/7/11
f 3/8/12 13/30/12 14/31/12 7/17/12
f 7/18/13 14/32/13 15/33/13 5/12/13
f 5/13/14 15/34/14 16/36/14 1/3/14
f 16/35/15 17/37/15 18/39/15 13/29/15
f 13/30/16 18/40/16 19/41/16 14/31/16
f 14/32/17 19/42/17 20/43/17 15/33/17
f 15/34/18 20/44/18 17/38/18 16/36/18
f 12/27/14 24/51/14 21/45/14 9/21/14
f 11/25/13 23/49/13 24/52/13 12/28/13
f 10/23/12 22/47/12 23/50/12 11/26/12
f 9/22/11 21/46/11 22/48/11 10/24/11
f 28/56/19 26/54/19 25/53/19 27/55/19
f 29/57/20 31/63/20 27/55/20 25/53/20
f 32/66/21 30/60/21 26/54/21 28/56/21
f 31/63/22 32/66/22 28/56/22 27/55/22
f 6/14/23 8/19/23 32/67/23 31/64/23
f 8/20/24 4/9/24 30/61/24 32/68/24
f 2/4/25 6/15/25 31/65/25 29/58/25
f 4/10/26 2/5/26 29/59/26 30/62/26
f 24/51/14 36/75/14 33/69/14 21/45/14
f 23/49/13 35/73/13 36/76/13 24/52/13
f 22/47/12 34/71/12 35/74/12 23/50/12
f 21/46/11 33/70/11 34/72/11 22/48/11
